<?xml version="1.0" encoding="utf-8"?>
<!-- Generator: Adobe Illustrator 15.0.0, SVG Export Plug-In . SVG Version: 6.00 Build 0)  -->
<!DOCTYPE svg PUBLIC "-//W3C//DTD SVG 1.0//EN" "http://www.w3.org/TR/2001/REC-SVG-20010904/DTD/svg10.dtd" [
	<!ENTITY ns_flows "http://ns.adobe.com/Flows/1.0/">
	<!ENTITY ns_extend "http://ns.adobe.com/Extensibility/1.0/">
	<!ENTITY ns_ai "http://ns.adobe.com/AdobeIllustrator/10.0/">
	<!ENTITY ns_graphs "http://ns.adobe.com/Graphs/1.0/">
]>
<svg version="1.0" id="Layer_1" xmlns:x="&ns_extend;" xmlns:i="&ns_ai;" xmlns:graph="&ns_graphs;"
	 xmlns="http://www.w3.org/2000/svg" xmlns:xlink="http://www.w3.org/1999/xlink" xmlns:a="http://ns.adobe.com/AdobeSVGViewerExtensions/3.0/"
	 x="0px" y="0px" width="39px" height="39px" viewBox="0 0 39 39" enable-background="new 0 0 39 39" xml:space="preserve">
<circle fill="#DD781D" cx="19.236" cy="19.835" r="18.219"/>
<g>
	<path fill-rule="evenodd" clip-rule="evenodd" fill="#FFFFFF" d="M19.356,9.665c0.191,5,0.049,10.821,0.012,16.442
		c-0.014,1.878,0.238,4.249-1.027,4.478c-1.398,0.252-3.209-2.044-4.094-2.768c-1.424-1.174-2.465-2.031-3.713-3.017
		c-1.809-0.407-3.93,0.723-4.855-0.532c-0.662-0.898-0.17-3.209-0.215-4.859c-0.047-1.724-0.35-3.363,0.279-4.233
		c1.621-0.852,3.135-0.055,4.484-0.342c1.037-0.221,2.777-1.92,3.756-2.714c1.434-1.163,2.561-2.172,3.508-2.841
		C17.987,8.927,18.813,8.992,19.356,9.665z"/>
	<path fill-rule="evenodd" clip-rule="evenodd" fill="#FFFFFF" d="M28.647,12.122c2.113-0.988,4.246,4.383,4.439,6.383
		c0.268,2.774-0.486,4.939-1.414,6.592c-0.615,1.094-1.646,2.785-2.635,2.722c-0.631-0.04-1.061-0.516-1.115-1.003
		c-0.131-1.176,1.172-1.617,1.762-2.605c1.861-3.115,1.072-7.284-0.805-9.72C28.608,14.137,27.427,12.693,28.647,12.122z"/>
	<path fill-rule="evenodd" clip-rule="evenodd" fill="#FFFFFF" d="M25.763,14.967c1.412-0.238,3.109,2.902,2.826,5.625
		c-0.195,1.881-1.439,4.246-2.768,4.217c-2.498-0.057,0.01-2.738,0.271-3.486c0.389-1.114,0.268-2.104,0.02-2.865
		C25.802,17.508,23.499,15.348,25.763,14.967z"/>
	<path fill-rule="evenodd" clip-rule="evenodd" fill="#FFFFFF" d="M21.743,19.921c-2.029-2.506,1.871-3.643,2.246-0.607
		c0.135,1.092-0.391,2.791-1.389,2.98C20.917,22.612,20.89,21.162,21.743,19.921z"/>
</g>
</svg>
