<?xml version="1.0" encoding="utf-8"?>
<!-- Generator: Adobe Illustrator 15.0.0, SVG Export Plug-In . SVG Version: 6.00 Build 0)  -->
<!DOCTYPE svg PUBLIC "-//W3C//DTD SVG 1.0//EN" "http://www.w3.org/TR/2001/REC-SVG-20010904/DTD/svg10.dtd" [
	<!ENTITY ns_flows "http://ns.adobe.com/Flows/1.0/">
	<!ENTITY ns_extend "http://ns.adobe.com/Extensibility/1.0/">
	<!ENTITY ns_ai "http://ns.adobe.com/AdobeIllustrator/10.0/">
	<!ENTITY ns_graphs "http://ns.adobe.com/Graphs/1.0/">
]>
<svg version="1.0" id="Layer_1" xmlns:x="&ns_extend;" xmlns:i="&ns_ai;" xmlns:graph="&ns_graphs;"
	 xmlns="http://www.w3.org/2000/svg" xmlns:xlink="http://www.w3.org/1999/xlink" xmlns:a="http://ns.adobe.com/AdobeSVGViewerExtensions/3.0/"
	 x="0px" y="0px" width="39px" height="39px" viewBox="0 0 39 39" enable-background="new 0 0 39 39" xml:space="preserve">
<circle fill="#00C9FF" stroke="#0B8BB2" stroke-width="2" cx="19.594" cy="19.591" r="18.219"/>
<path fill="#FFFFFF" d="M20.189,16.367c-2.468-0.002-4.469,1.997-4.473,4.466c-0.001,2.471,2,4.473,4.465,4.475
	c2.471,0.002,4.473-1.998,4.477-4.467C24.658,18.373,22.66,16.369,20.189,16.367 M32.5,11.93l-20.244-0.018l0.001-1.389
	l-4.328-0.003l-0.002,1.389l-1.223-0.002c-0.452,0-0.817,0.367-0.818,0.817L5.873,27.827c0.001,0.451,0.367,0.816,0.815,0.816
	l25.798,0.02c0.451,0,0.818-0.363,0.818-0.814l0.012-15.103C33.318,12.293,32.951,11.93,32.5,11.93 M20.223,27.185
	c-3.506-0.002-6.346-2.846-6.344-6.352c0.004-3.507,2.848-6.346,6.354-6.342c3.506,0.001,6.344,2.846,6.344,6.352
	C26.57,24.349,23.729,27.188,20.223,27.185"/>
</svg>
