<?xml version="1.0" encoding="utf-8"?>
<!-- Generator: Adobe Illustrator 15.0.0, SVG Export Plug-In . SVG Version: 6.00 Build 0)  -->
<!DOCTYPE svg PUBLIC "-//W3C//DTD SVG 1.0//EN" "http://www.w3.org/TR/2001/REC-SVG-20010904/DTD/svg10.dtd" [
	<!ENTITY ns_flows "http://ns.adobe.com/Flows/1.0/">
	<!ENTITY ns_extend "http://ns.adobe.com/Extensibility/1.0/">
	<!ENTITY ns_ai "http://ns.adobe.com/AdobeIllustrator/10.0/">
	<!ENTITY ns_graphs "http://ns.adobe.com/Graphs/1.0/">
]>
<svg version="1.0" id="Layer_1" xmlns:x="&ns_extend;" xmlns:i="&ns_ai;" xmlns:graph="&ns_graphs;"
	 xmlns="http://www.w3.org/2000/svg" xmlns:xlink="http://www.w3.org/1999/xlink" xmlns:a="http://ns.adobe.com/AdobeSVGViewerExtensions/3.0/"
	 x="0px" y="0px" width="39px" height="39px" viewBox="0 0 39 39" enable-background="new 0 0 39 39" xml:space="preserve">
<circle fill="#DD781D" cx="19.753" cy="19.835" r="18.219"/>
<path fill="#FFFFFF" d="M20.349,16.611c-2.468-0.002-4.469,1.997-4.473,4.465c-0.001,2.471,2,4.473,4.465,4.475
	c2.47,0.002,4.473-1.998,4.476-4.467C24.816,18.617,22.818,16.613,20.349,16.611 M32.659,12.173l-20.244-0.018l0.001-1.389
	l-4.328-0.002l-0.002,1.388l-1.223-0.001c-0.452,0-0.817,0.367-0.818,0.817L6.032,28.07c0.001,0.451,0.367,0.816,0.815,0.816
	l25.798,0.02c0.451,0,0.817-0.363,0.818-0.814l0.011-15.102C33.478,12.537,33.109,12.173,32.659,12.173 M20.381,27.428
	c-3.505-0.002-6.345-2.846-6.343-6.352c0.004-3.506,2.848-6.346,6.353-6.341c3.507,0,6.345,2.846,6.344,6.351
	C26.729,24.592,23.888,27.432,20.381,27.428"/>
</svg>
