<?xml version="1.0" encoding="utf-8"?>
<!-- Generator: Adobe Illustrator 15.0.0, SVG Export Plug-In . SVG Version: 6.00 Build 0)  -->
<!DOCTYPE svg PUBLIC "-//W3C//DTD SVG 1.0//EN" "http://www.w3.org/TR/2001/REC-SVG-20010904/DTD/svg10.dtd" [
	<!ENTITY ns_flows "http://ns.adobe.com/Flows/1.0/">
	<!ENTITY ns_extend "http://ns.adobe.com/Extensibility/1.0/">
	<!ENTITY ns_ai "http://ns.adobe.com/AdobeIllustrator/10.0/">
	<!ENTITY ns_graphs "http://ns.adobe.com/Graphs/1.0/">
]>
<svg version="1.0" id="Layer_1" xmlns:x="&ns_extend;" xmlns:i="&ns_ai;" xmlns:graph="&ns_graphs;"
	 xmlns="http://www.w3.org/2000/svg" xmlns:xlink="http://www.w3.org/1999/xlink" xmlns:a="http://ns.adobe.com/AdobeSVGViewerExtensions/3.0/"
	 x="0px" y="0px" width="39px" height="39px" viewBox="0 0 39 39" enable-background="new 0 0 39 39" xml:space="preserve">
<circle fill="#DD781D" cx="19.219" cy="19.218" r="18.219"/>
<g>
	<path fill="#FFFFFF" d="M25.514,15.711H8.276c-1.023,0-1.855,0.831-1.855,1.855v8.193c0,1.024,0.832,1.855,1.855,1.855h17.237
		c1.025,0,1.855-0.831,1.855-1.855v-8.193C27.369,16.542,26.539,15.711,25.514,15.711 M28.452,25.142h5.102v-7.189h-5.102V25.142z
		 M12.528,14.784c2.178,0,3.942-1.766,3.942-3.943c0-2.177-1.765-3.942-3.942-3.942s-3.942,1.766-3.942,3.942
		C8.586,13.019,10.351,14.784,12.528,14.784 M21.34,14.706c2.177,0,3.943-1.765,3.943-3.941c0-2.178-1.767-3.943-3.943-3.943
		c-2.178,0-3.942,1.766-3.942,3.943C17.397,12.941,19.162,14.706,21.34,14.706"/>
</g>
</svg>
