<?xml version="1.0" encoding="utf-8"?>
<!-- Generator: Adobe Illustrator 15.0.0, SVG Export Plug-In . SVG Version: 6.00 Build 0)  -->
<!DOCTYPE svg PUBLIC "-//W3C//DTD SVG 1.0//EN" "http://www.w3.org/TR/2001/REC-SVG-20010904/DTD/svg10.dtd" [
	<!ENTITY ns_flows "http://ns.adobe.com/Flows/1.0/">
	<!ENTITY ns_extend "http://ns.adobe.com/Extensibility/1.0/">
	<!ENTITY ns_ai "http://ns.adobe.com/AdobeIllustrator/10.0/">
	<!ENTITY ns_graphs "http://ns.adobe.com/Graphs/1.0/">
]>
<svg version="1.0" id="Layer_1" xmlns:x="&ns_extend;" xmlns:i="&ns_ai;" xmlns:graph="&ns_graphs;"
	 xmlns="http://www.w3.org/2000/svg" xmlns:xlink="http://www.w3.org/1999/xlink" xmlns:a="http://ns.adobe.com/AdobeSVGViewerExtensions/3.0/"
	 x="0px" y="0px" width="39px" height="39px" viewBox="0 0 39 39" enable-background="new 0 0 39 39" xml:space="preserve">
<circle fill="#00C9FF" stroke="#0B8BB2" stroke-width="2" cx="19.406" cy="19.719" r="18.219"/>
<g>
	<path fill="#FFFFFF" d="M25.701,16.211H8.464c-1.023,0-1.855,0.831-1.855,1.855v8.193c0,1.025,0.832,1.855,1.855,1.855h17.237
		c1.025,0,1.855-0.83,1.855-1.855v-8.193C27.557,17.042,26.727,16.211,25.701,16.211 M28.64,25.643h5.102v-7.19H28.64V25.643z
		 M12.716,15.284c2.178,0,3.942-1.766,3.942-3.943c0-2.177-1.765-3.942-3.942-3.942s-3.942,1.766-3.942,3.942
		C8.773,13.519,10.538,15.284,12.716,15.284 M21.527,15.207c2.177,0,3.943-1.765,3.943-3.942s-1.767-3.942-3.943-3.942
		c-2.178,0-3.942,1.765-3.942,3.942S19.35,15.207,21.527,15.207"/>
</g>
</svg>
